<svg xmlns="http://www.w3.org/2000/svg" width="24" height="24" viewBox="0 0 24 24" fill="none">
  <path fill-rule="evenodd" clip-rule="evenodd" d="M23 12c0-6.075-4.925-11-11-11S1 5.925 1 12s4.925 11 11 11 11-4.925 11-11zM12 0c6.627 0 12 5.373 12 12s-5.373 12-12 12S0 18.627 0 12 5.373 0 12 0z" fill="#1877F2"/>
  <path fill-rule="evenodd" clip-rule="evenodd" d="M10.597 18.606v-5.951H8.49V10.21h2.107v-1.8c0-1.026.286-1.82.858-2.381.573-.562 1.336-.843 2.291-.843.808 0 1.433.032 1.875.095v2.18l-1.285.01c-.477 0-.799.099-.964.296-.165.196-.247.491-.247.884v1.56h2.412l-.316 2.443h-2.096v5.951h-2.528z" fill="#1877F2"/>
</svg>
