<svg xmlns="http://www.w3.org/2000/svg" width="24" height="24" viewBox="0 0 24 24" fill="none">
  <path fill-rule="evenodd" clip-rule="evenodd" d="M23 12c0-6.075-4.925-11-11-11S1 5.925 1 12s4.925 11 11 11 11-4.925 11-11zM12 0c6.627 0 12 5.373 12 12s-5.373 12-12 12S0 18.627 0 12 5.373 0 12 0z" fill="#1DA1F2"/>
  <path fill-rule="evenodd" clip-rule="evenodd" d="M17.576 9.669c.04.904-.071 1.808-.329 2.675a8.325 8.325 0 01-1.024 2.204 8.666 8.666 0 01-1.636 1.867c-.634.541-1.396.973-2.29 1.296-.92.326-1.889.49-2.864.483a7.963 7.963 0 01-4.4-1.286c.206.023.437.034.691.034 1.331 0 2.517-.407 3.558-1.223a2.793 2.793 0 01-1.669-.573 2.803 2.803 0 01-1.01-1.415c.194.03.375.045.541.045.254 0 .505-.033.754-.098a2.819 2.819 0 01-1.646-.989 2.768 2.768 0 01-.652-1.823v-.035c.402.225.834.345 1.295.364a2.862 2.862 0 01-.931-1.02 2.792 2.792 0 01-.346-1.367c0-.52.13-1.003.39-1.446.714.88 1.604 1.6 2.613 2.116a7.984 7.984 0 003.295.882 3.178 3.178 0 01-.07-.656c0-.792.278-1.468.838-2.027a2.762 2.762 0 012.026-.839 2.76 2.76 0 012.093.906 5.62 5.62 0 001.82-.693 2.782 2.782 0 01-1.26 1.58 5.71 5.71 0 001.649-.444 6.005 6.005 0 01-1.437 1.482z" fill="#1DA1F2"/>
</svg>
