<svg width="112" height="80" viewBox="0 0 112 80" fill="none" xmlns="http://www.w3.org/2000/svg">
  <path fill-rule="evenodd" clip-rule="evenodd" d="M1.5 1.5h109v77H1.5v-77zM112 0v80H0V0h112z" fill="#999"/>
  <path d="M32.77 30.242l-8.945-2.177c-1.522-.354-3.898-.963-3.898-3.84 0-3.289 3.49-4.402 6.422-4.402 6.674 0 7.284 3.896 7.482 5.563h4.258v6.843c-1.562-.913-3.407-1.505-5.318-1.987zm-4.856 21.892c1.92 0 6.643-.336 10.175-2.914v1.956h7.125l.007-8.6 2.974-3.081 6.477 11.68h8.55l-9.813-16.688 9.557-10.518h-8.752l-8.993 10.32V14.464H38.09V17.6c-2.17-2.332-5.692-4.095-11.18-4.095-11.883 0-14.115 7.23-14.115 11.275 0 5.56 2.99 8.65 8.197 9.913l7.381 1.818c3.894.96 6.677 1.669 6.677 4.55 0 3.844-4.049 4.753-7.69 4.753-6.674 0-7.786-3.892-7.786-5.965H12.24c0 4.55 2.325 12.285 15.674 12.285M17.085 61.12h3.006c.677 0 1.177-.13 1.5-.39.319-.26.48-.687.48-1.282 0-.426-.13-.8-.391-1.122-.262-.322-.73-.484-1.401-.484h-3.194v3.278zm-2.51 6.867V55.724h6.2c.989 0 1.772.198 2.349.594.577.397.972.86 1.189 1.39.214.532.323 1.026.323 1.485 0 .687-.168 1.295-.503 1.824-.335.53-.8.895-1.395 1.095.384.167.682.345.895.534.212.188.376.479.49.87.114.393.17.96.17 1.703 0 .694.01 1.185.026 1.469.016.285.061.502.135.65a.655.655 0 00.386.324v.325h-2.836c-.18-.612-.271-1.437-.271-2.476 0-.632-.038-1.102-.114-1.41a1.033 1.033 0 00-.536-.688c-.28-.15-.731-.225-1.351-.225h-2.647v4.8h-2.51zM28.463 62.538h3.704c-.062-.67-.27-1.156-.628-1.459a1.84 1.84 0 00-1.219-.451c-1.09 0-1.71.636-1.857 1.91zm3.6 2.782h2.459c-.29 1.01-.806 1.746-1.549 2.21a4.527 4.527 0 01-2.444.695 5.945 5.945 0 01-1.81-.261 3.66 3.66 0 01-1.435-.841c-.406-.388-.721-.906-.945-1.553-.224-.645-.336-1.418-.336-2.316 0-.38.05-.816.15-1.307.1-.49.296-.987.59-1.49.293-.504.738-.928 1.334-1.275.595-.345 1.355-.518 2.281-.518.502 0 1 .073 1.49.22.49.145.945.398 1.365.762.42.362.76.878 1.021 1.544.26.668.392 1.494.392 2.477v.425h-6.231c.034.37.097.706.192 1.012.094.305.296.582.606.832s.755.375 1.336.375c.347 0 .668-.088.963-.267.294-.177.485-.42.57-.724M43.703 61.665h-2.336c-.064-.372-.202-.664-.415-.875-.212-.21-.61-.317-1.192-.317-.98 0-1.47.297-1.47.89 0 .304.324.54.97.703.646.164 1.336.33 2.07.498.734.17 1.359.444 1.874.825.516.383.774.953.774 1.713 0 .808-.216 1.446-.651 1.914-.434.467-.951.785-1.552.954a6.56 6.56 0 01-1.779.255c-1.198 0-2.219-.245-3.061-.734-.841-.49-1.279-1.292-1.309-2.406h2.46c0 .887.661 1.33 1.983 1.33.548 0 .939-.099 1.17-.297.234-.196.35-.411.35-.641 0-.328-.336-.577-1.01-.75-.673-.17-1.36-.336-2.06-.5-.703-.162-1.305-.432-1.81-.808-.506-.376-.757-.949-.757-1.716 0-.495.116-.973.347-1.434.232-.462.623-.844 1.172-1.15.55-.303 1.266-.455 2.15-.455 2.574 0 3.935 1 4.082 3.001M45.675 58.901h2.389v9.086h-2.39v-9.086zm2.389-3.298v2.219h-2.39v-2.22h2.39zM52.22 63.516c0 .682.156 1.31.466 1.884.31.574.81.86 1.5.86.715 0 1.248-.25 1.596-.75.35-.5.525-1.118.525-1.858 0-1.946-.683-2.92-2.05-2.92-.706 0-1.222.264-1.549.792-.325.527-.488 1.19-.488 1.992zm6.372-7.792v12.263h-2.335v-1.142h-.033c-.526.92-1.404 1.38-2.633 1.38-.854 0-1.57-.225-2.147-.675-.577-.45-1.002-1.049-1.275-1.792a6.978 6.978 0 01-.409-2.416c0-.756.102-1.432.303-2.027.201-.593.478-1.088.828-1.481a3.414 3.414 0 011.204-.881c.452-.192.932-.29 1.441-.29 1.146 0 2.024.474 2.633 1.422h.034v-4.36h2.39M62.589 62.538h3.704c-.061-.67-.27-1.156-.628-1.459a1.838 1.838 0 00-1.218-.451c-1.091 0-1.711.636-1.858 1.91zm3.6 2.782h2.46c-.29 1.01-.807 1.746-1.55 2.21a4.525 4.525 0 01-2.444.695 5.942 5.942 0 01-1.81-.261 3.66 3.66 0 01-1.435-.841c-.406-.388-.72-.906-.945-1.553-.224-.645-.336-1.418-.336-2.316 0-.38.05-.816.15-1.307.1-.49.296-.987.59-1.49.292-.504.738-.928 1.334-1.275.595-.345 1.355-.518 2.281-.518.503 0 1 .073 1.49.22.49.145.945.398 1.364.762.42.362.76.878 1.022 1.544.26.668.393 1.494.393 2.477v.425H62.52c.034.37.098.706.193 1.012.093.305.295.582.605.832s.755.375 1.336.375c.348 0 .668-.088.964-.267.294-.177.484-.42.57-.724M78.557 61.703v6.284h-2.389V62.47a3.89 3.89 0 00-.085-.847 1.194 1.194 0 00-.432-.662c-.23-.189-.576-.284-1.037-.284-.356 0-.677.081-.96.24a1.683 1.683 0 00-.671.717c-.164.319-.246.7-.246 1.145v5.208h-2.39v-9.086h2.286v1.331h.034c.622-1.046 1.534-1.568 2.734-1.568.603 0 1.145.116 1.623.35.478.233.852.578 1.124 1.034.274.456.41 1.008.41 1.655M83.335 56.441v2.46h1.488v1.71h-1.488v4.936c0 .212.017.363.05.455.033.092.119.16.256.21.138.046.366.07.685.07.104 0 .27-.01.497-.033v1.804c-.564.025-.942.038-1.13.038h-.303c-.66 0-1.169-.078-1.525-.236-.357-.156-.601-.377-.729-.66-.127-.283-.19-.639-.19-1.067V60.61h-1.231V58.9h1.23v-2.46h2.39z" fill="#999"/>
</svg>
